IDDARU (1997) TELUGU MOVIE TORRENT - TELUGUPPLS


FOR SCREENSHOTS CLICK HERE
 
http://teluguppls.blogspot.com/2011/05/iddaru-1997-dvdrip-telugu-movie-torrent.html


General

Format                           : MPEG-4
File size                        : 707 MiB
Duration                         : 2h 45mn
Overall bit rate                 : 597 Kbps

Video

Format                           : AVC
Format/Info                      : Advanced Video Codec
Format settings, ReFrames        : 5 frames
Duration                         : 2h 45mn
Bit rate mode                    : Variable
Bit rate                         : 560 Kbps
Maximum bit rate                 : 1 572 Kbps
Width                            : 512 pixels
Height                           : 388 pixels
Display aspect ratio             : 4:3
Frame rate mode                  : Constant
Frame rate                       : 29.970 fps
Color space                      : YUV
Chroma subsampling               : 4:2:0
Bit depth                        : 8 bits
Scan type                        : Progressive
Bits/(Pixel*Frame)               : 0.094
Stream size                      : 664 MiB (94%)


Audio

Format                           : AAC
Format/Info                      : Advanced Audio Codec
Format profile                   : HE-AAC / LC
Codec ID                         : 40
Duration                         : 2h 45mn
Bit rate mode                    : Variable
Bit rate                         : 32.0 Kbps
Maximum bit rate                 : 36.8 Kbps
Channel(s)                       : 2 channels
Channel positions                : Front: L R
Sampling rate                    : 48.0 KHz / 24.0 KHz
Compression mode                 : Lossy
Stream size                      : 37.9 MiB (5%)


POST A COMMENT........................